<?xml version="1.0" standalone="no"?>
<svg xmlns:xlink="http://www.w3.org/1999/xlink" id="wave" style="transform:rotate(0deg); transition: 0.3s" viewBox="0 0 1440 350" version="1.1" xmlns="http://www.w3.org/2000/svg"><defs><linearGradient id="sw-gradient-0" x1="0" x2="0" y1="1" y2="0"><stop stop-color="rgba(243, 106, 62, 1)" offset="0%"/><stop stop-color="rgba(255, 179, 11, 1)" offset="100%"/></linearGradient></defs><path style="transform:translate(0, 0px); opacity:1" fill="url(#sw-gradient-0)" d="M0,245L40,250.8C80,257,160,268,240,250.8C320,233,400,187,480,169.2C560,152,640,163,720,186.7C800,210,880,245,960,221.7C1040,198,1120,117,1200,99.2C1280,82,1360,128,1440,145.8C1520,163,1600,152,1680,157.5C1760,163,1840,187,1920,215.8C2000,245,2080,280,2160,245C2240,210,2320,105,2400,58.3C2480,12,2560,23,2640,40.8C2720,58,2800,82,2880,99.2C2960,117,3040,128,3120,116.7C3200,105,3280,70,3360,99.2C3440,128,3520,222,3600,239.2C3680,257,3760,198,3840,169.2C3920,140,4000,140,4080,169.2C4160,198,4240,257,4320,245C4400,233,4480,152,4560,140C4640,128,4720,187,4800,221.7C4880,257,4960,268,5040,262.5C5120,257,5200,233,5280,239.2C5360,245,5440,280,5520,280C5600,280,5680,245,5720,227.5L5760,210L5760,350L5720,350C5680,350,5600,350,5520,350C5440,350,5360,350,5280,350C5200,350,5120,350,5040,350C4960,350,4880,350,4800,350C4720,350,4640,350,4560,350C4480,350,4400,350,4320,350C4240,350,4160,350,4080,350C4000,350,3920,350,3840,350C3760,350,3680,350,3600,350C3520,350,3440,350,3360,350C3280,350,3200,350,3120,350C3040,350,2960,350,2880,350C2800,350,2720,350,2640,350C2560,350,2480,350,2400,350C2320,350,2240,350,2160,350C2080,350,2000,350,1920,350C1840,350,1760,350,1680,350C1600,350,1520,350,1440,350C1360,350,1280,350,1200,350C1120,350,1040,350,960,350C880,350,800,350,720,350C640,350,560,350,480,350C400,350,320,350,240,350C160,350,80,350,40,350L0,350Z"/></svg>